<?xml version="1.0" standalone="no"?>
<!DOCTYPE svg PUBLIC "-//W3C//DTD SVG 20010904//EN"
 "http://www.w3.org/TR/2001/REC-SVG-20010904/DTD/svg10.dtd">
<svg version="1.0" xmlns="http://www.w3.org/2000/svg"
 width="22.000000pt" height="22.000000pt" viewBox="0 0 64.000000 64.000000"
 preserveAspectRatio="xMidYMid meet">

<g transform="translate(0.000000,64.000000) scale(0.100000,-0.100000)"
fill="#1A6DFF" stroke="none">
<path d="M233 578 c-6 -7 -14 -23 -17 -35 -4 -13 -14 -23 -22 -23 -8 0 -14 -7
-14 -15 0 -11 -12 -15 -44 -15 -74 0 -76 -6 -76 -200 0 -140 3 -171 16 -184
23 -24 465 -24 488 0 13 13 16 44 16 184 0 194 -2 200 -76 200 -32 0 -44 4
-44 15 0 8 -6 15 -13 15 -7 0 -20 15 -28 33 -14 32 -14 32 -95 35 -57 2 -84
-1 -91 -10z m175 -35 c2 -13 -1 -23 -7 -23 -6 0 -11 -7 -11 -15 0 -12 -14 -15
-70 -15 -56 0 -70 3 -70 15 0 8 -4 15 -10 15 -11 0 -14 33 -3 44 4 4 43 5 88
4 74 -3 80 -5 83 -25z m152 -158 l0 -85 -80 0 -80 0 0 40 c0 30 -7 47 -25 65
-53 54 -135 15 -135 -65 l0 -40 -80 0 -80 0 0 85 0 85 240 0 240 0 0 -85z
m-200 5 c24 -24 26 -77 4 -108 -20 -30 -68 -30 -88 0 -34 49 -7 128 44 128 11
0 29 -9 40 -20z m-130 -138 c-11 -15 -23 -44 -27 -65 l-6 -37 123 0 123 0 -6
37 c-4 21 -16 50 -27 65 l-21 28 86 0 85 0 0 -85 0 -85 -240 0 -240 0 0 85 0
85 85 0 86 0 -21 -28z m64 -3 c19 -9 32 -9 56 1 36 15 53 4 26 -16 -34 -24
-126 -13 -126 16 0 13 13 13 44 -1z m-4 -39 c30 -10 43 -9 74 4 44 18 56 14
56 -20 0 -24 -1 -24 -100 -24 -98 0 -100 0 -100 23 0 27 9 39 24 33 6 -3 27
-10 46 -16z"/>
<path d="M296 374 c-9 -9 -15 -19 -12 -21 3 -3 13 2 22 11 9 9 14 19 11 22 -2
3 -12 -3 -21 -12z"/>
</g>
</svg>
