<?xml version="1.0" standalone="no"?>
<!DOCTYPE svg PUBLIC "-//W3C//DTD SVG 20010904//EN"
 "http://www.w3.org/TR/2001/REC-SVG-20010904/DTD/svg10.dtd">
<svg version="1.0" xmlns="http://www.w3.org/2000/svg"
 width="22.000000pt" height="22.000000pt" viewBox="0 0 48.000000 48.000000"
 preserveAspectRatio="xMidYMid meet">

<g transform="translate(0.000000,48.000000) scale(0.100000,-0.100000)"
fill="#088242">
<path d="M170 411 c0 -33 14 -41 70 -41 56 0 70 8 70 41 0 5 -31 9 -70 9 -38 
0 -70 -4 -70 -9z"/>
<path d="M157 272 c-74 -74 -78 -81 -75 -117 5 -62 38 -79 151 -80 113 0 152
14 167 61 16 49 -9 129 -55 177 -29 30 -43 37 -73 37 -33 0 -46 -9 -115 -78z
m93 28 c0 -5 6 -10 14 -10 15 0 28 -24 19 -34 -3 -3 -16 -3 -28 0 -38 9 -37
-13 0 -35 42 -25 46 -54 9 -87 -22 -22 -27 -23 -40 -9 -9 8 -20 15 -25 15 -5
0 -9 8 -9 18 0 15 6 17 35 14 19 -2 35 -2 35 1 0 3 -16 14 -35 26 -41 24 -46
55 -12 88 24 24 37 29 37 13z"/>
</g>
</svg>
